<mxfile host="app.diagrams.net" modified="2022-11-26T14:10:26.956Z" agent="5.0 (Windows NT 10.0; Win64; x64) AppleWebKit/537.36 (KHTML, like Gecko) Chrome/107.0.0.0 Safari/537.36" etag="64dADBHbe61wL2QyLy5K" version="20.6.0" type="github">
  <diagram id="0avCVSnEWd64Q6_90rA-" name="‫עמוד-1‬">
    <mxGraphModel dx="3041" dy="1233" grid="1" gridSize="10" guides="1" tooltips="1" connect="1" arrows="1" fold="1" page="1" pageScale="1" pageWidth="827" pageHeight="1169" math="0" shadow="0">
      <root>
        <mxCell id="0" />
        <mxCell id="1" parent="0" />
        <mxCell id="SEklCGni3M-3mtYTayHP-1" value="App" style="rounded=1;whiteSpace=wrap;html=1;" parent="1" vertex="1">
          <mxGeometry x="-20" y="340" width="120" height="60" as="geometry" />
        </mxCell>
        <mxCell id="SEklCGni3M-3mtYTayHP-2" value="Device" style="rounded=1;whiteSpace=wrap;html=1;" parent="1" vertex="1">
          <mxGeometry x="560" y="340" width="120" height="60" as="geometry" />
        </mxCell>
        <mxCell id="SEklCGni3M-3mtYTayHP-3" value="Server" style="rounded=1;whiteSpace=wrap;html=1;" parent="1" vertex="1">
          <mxGeometry x="320" y="50" width="120" height="60" as="geometry" />
        </mxCell>
        <mxCell id="SEklCGni3M-3mtYTayHP-4" value="" style="endArrow=classic;html=1;rounded=0;" parent="1" edge="1">
          <mxGeometry width="50" height="50" relative="1" as="geometry">
            <mxPoint x="110" y="330" as="sourcePoint" />
            <mxPoint x="210" y="230" as="targetPoint" />
          </mxGeometry>
        </mxCell>
        <mxCell id="SEklCGni3M-3mtYTayHP-5" value="get all connected devices" style="edgeLabel;html=1;align=center;verticalAlign=middle;resizable=0;points=[];" parent="SEklCGni3M-3mtYTayHP-4" vertex="1" connectable="0">
          <mxGeometry x="-0.27" y="-2" relative="1" as="geometry">
            <mxPoint x="-1" as="offset" />
          </mxGeometry>
        </mxCell>
        <mxCell id="SEklCGni3M-3mtYTayHP-10" value="" style="endArrow=classic;html=1;rounded=0;" parent="1" edge="1">
          <mxGeometry width="50" height="50" relative="1" as="geometry">
            <mxPoint x="20" y="310" as="sourcePoint" />
            <mxPoint x="120" y="210" as="targetPoint" />
          </mxGeometry>
        </mxCell>
        <mxCell id="SEklCGni3M-3mtYTayHP-11" value="send commands to connected device" style="edgeLabel;html=1;align=center;verticalAlign=middle;resizable=0;points=[];" parent="SEklCGni3M-3mtYTayHP-10" vertex="1" connectable="0">
          <mxGeometry x="-0.27" y="-2" relative="1" as="geometry">
            <mxPoint x="-1" as="offset" />
          </mxGeometry>
        </mxCell>
        <mxCell id="SEklCGni3M-3mtYTayHP-18" value="" style="endArrow=classic;html=1;rounded=0;" parent="1" edge="1">
          <mxGeometry width="50" height="50" relative="1" as="geometry">
            <mxPoint x="550" y="320" as="sourcePoint" />
            <mxPoint x="490" y="240" as="targetPoint" />
          </mxGeometry>
        </mxCell>
        <mxCell id="SEklCGni3M-3mtYTayHP-19" value="connect to server" style="edgeLabel;html=1;align=center;verticalAlign=middle;resizable=0;points=[];" parent="SEklCGni3M-3mtYTayHP-18" vertex="1" connectable="0">
          <mxGeometry x="-0.2854" y="-1" relative="1" as="geometry">
            <mxPoint x="1" as="offset" />
          </mxGeometry>
        </mxCell>
        <mxCell id="SEklCGni3M-3mtYTayHP-20" value="" style="endArrow=classic;html=1;rounded=0;" parent="1" edge="1">
          <mxGeometry width="50" height="50" relative="1" as="geometry">
            <mxPoint x="300" y="90" as="sourcePoint" />
            <mxPoint x="220" y="170" as="targetPoint" />
          </mxGeometry>
        </mxCell>
        <mxCell id="SEklCGni3M-3mtYTayHP-21" value="list all connected devices" style="edgeLabel;html=1;align=center;verticalAlign=middle;resizable=0;points=[];" parent="SEklCGni3M-3mtYTayHP-20" vertex="1" connectable="0">
          <mxGeometry x="-0.27" y="-2" relative="1" as="geometry">
            <mxPoint x="-1" as="offset" />
          </mxGeometry>
        </mxCell>
        <mxCell id="SEklCGni3M-3mtYTayHP-22" value="" style="endArrow=classic;html=1;rounded=0;" parent="1" edge="1">
          <mxGeometry width="50" height="50" relative="1" as="geometry">
            <mxPoint x="380" y="120" as="sourcePoint" />
            <mxPoint x="300" y="200" as="targetPoint" />
          </mxGeometry>
        </mxCell>
        <mxCell id="SEklCGni3M-3mtYTayHP-24" value="" style="endArrow=classic;html=1;rounded=0;" parent="1" edge="1">
          <mxGeometry width="50" height="50" relative="1" as="geometry">
            <mxPoint x="380" y="120" as="sourcePoint" />
            <mxPoint x="450" y="200" as="targetPoint" />
          </mxGeometry>
        </mxCell>
        <mxCell id="SEklCGni3M-3mtYTayHP-25" value="link app and device" style="edgeLabel;html=1;align=center;verticalAlign=middle;resizable=0;points=[];" parent="SEklCGni3M-3mtYTayHP-24" vertex="1" connectable="0">
          <mxGeometry x="-0.27" y="-2" relative="1" as="geometry">
            <mxPoint x="-24" y="9" as="offset" />
          </mxGeometry>
        </mxCell>
        <mxCell id="SEklCGni3M-3mtYTayHP-26" value="to ensure that the connection is active" style="endArrow=classic;html=1;rounded=0;" parent="1" edge="1">
          <mxGeometry width="50" height="50" relative="1" as="geometry">
            <mxPoint x="470" y="90" as="sourcePoint" />
            <mxPoint x="540" y="160" as="targetPoint" />
          </mxGeometry>
        </mxCell>
      </root>
    </mxGraphModel>
  </diagram>
</mxfile>
